<?xml version="1.0" encoding="UTF-8"?>
<svg xmlns="http://www.w3.org/2000/svg" width="374" height="90" viewBox="0 0 374 90">
<rect width="100%" height="100%" fill="white"/>
<rect x="20" y="10" width="2" height="60" fill="black"/>
<rect x="22" y="10" width="2" height="60" fill="black"/>
<rect x="26" y="10" width="2" height="60" fill="black"/>
<rect x="32" y="10" width="2" height="60" fill="black"/>
<rect x="42" y="10" width="2" height="60" fill="black"/>
<rect x="48" y="10" width="2" height="60" fill="black"/>
<rect x="50" y="10" width="2" height="60" fill="black"/>
<rect x="52" y="10" width="2" height="60" fill="black"/>
<rect x="58" y="10" width="2" height="60" fill="black"/>
<rect x="60" y="10" width="2" height="60" fill="black"/>
<rect x="64" y="10" width="2" height="60" fill="black"/>
<rect x="70" y="10" width="2" height="60" fill="black"/>
<rect x="72" y="10" width="2" height="60" fill="black"/>
<rect x="74" y="10" width="2" height="60" fill="black"/>
<rect x="80" y="10" width="2" height="60" fill="black"/>
<rect x="82" y="10" width="2" height="60" fill="black"/>
<rect x="86" y="10" width="2" height="60" fill="black"/>
<rect x="88" y="10" width="2" height="60" fill="black"/>
<rect x="90" y="10" width="2" height="60" fill="black"/>
<rect x="94" y="10" width="2" height="60" fill="black"/>
<rect x="96" y="10" width="2" height="60" fill="black"/>
<rect x="100" y="10" width="2" height="60" fill="black"/>
<rect x="102" y="10" width="2" height="60" fill="black"/>
<rect x="104" y="10" width="2" height="60" fill="black"/>
<rect x="108" y="10" width="2" height="60" fill="black"/>
<rect x="110" y="10" width="2" height="60" fill="black"/>
<rect x="116" y="10" width="2" height="60" fill="black"/>
<rect x="120" y="10" width="2" height="60" fill="black"/>
<rect x="122" y="10" width="2" height="60" fill="black"/>
<rect x="124" y="10" width="2" height="60" fill="black"/>
<rect x="130" y="10" width="2" height="60" fill="black"/>
<rect x="132" y="10" width="2" height="60" fill="black"/>
<rect x="138" y="10" width="2" height="60" fill="black"/>
<rect x="140" y="10" width="2" height="60" fill="black"/>
<rect x="142" y="10" width="2" height="60" fill="black"/>
<rect x="148" y="10" width="2" height="60" fill="black"/>
<rect x="152" y="10" width="2" height="60" fill="black"/>
<rect x="154" y="10" width="2" height="60" fill="black"/>
<rect x="156" y="10" width="2" height="60" fill="black"/>
<rect x="160" y="10" width="2" height="60" fill="black"/>
<rect x="162" y="10" width="2" height="60" fill="black"/>
<rect x="166" y="10" width="2" height="60" fill="black"/>
<rect x="168" y="10" width="2" height="60" fill="black"/>
<rect x="170" y="10" width="2" height="60" fill="black"/>
<rect x="174" y="10" width="2" height="60" fill="black"/>
<rect x="180" y="10" width="2" height="60" fill="black"/>
<rect x="182" y="10" width="2" height="60" fill="black"/>
<rect x="184" y="10" width="2" height="60" fill="black"/>
<rect x="188" y="10" width="2" height="60" fill="black"/>
<rect x="190" y="10" width="2" height="60" fill="black"/>
<rect x="196" y="10" width="2" height="60" fill="black"/>
<rect x="198" y="10" width="2" height="60" fill="black"/>
<rect x="200" y="10" width="2" height="60" fill="black"/>
<rect x="204" y="10" width="2" height="60" fill="black"/>
<rect x="210" y="10" width="2" height="60" fill="black"/>
<rect x="212" y="10" width="2" height="60" fill="black"/>
<rect x="218" y="10" width="2" height="60" fill="black"/>
<rect x="224" y="10" width="2" height="60" fill="black"/>
<rect x="226" y="10" width="2" height="60" fill="black"/>
<rect x="228" y="10" width="2" height="60" fill="black"/>
<rect x="232" y="10" width="2" height="60" fill="black"/>
<rect x="234" y="10" width="2" height="60" fill="black"/>
<rect x="240" y="10" width="2" height="60" fill="black"/>
<rect x="246" y="10" width="2" height="60" fill="black"/>
<rect x="248" y="10" width="2" height="60" fill="black"/>
<rect x="250" y="10" width="2" height="60" fill="black"/>
<rect x="254" y="10" width="2" height="60" fill="black"/>
<rect x="256" y="10" width="2" height="60" fill="black"/>
<rect x="262" y="10" width="2" height="60" fill="black"/>
<rect x="264" y="10" width="2" height="60" fill="black"/>
<rect x="270" y="10" width="2" height="60" fill="black"/>
<rect x="272" y="10" width="2" height="60" fill="black"/>
<rect x="274" y="10" width="2" height="60" fill="black"/>
<rect x="280" y="10" width="2" height="60" fill="black"/>
<rect x="284" y="10" width="2" height="60" fill="black"/>
<rect x="286" y="10" width="2" height="60" fill="black"/>
<rect x="288" y="10" width="2" height="60" fill="black"/>
<rect x="294" y="10" width="2" height="60" fill="black"/>
<rect x="298" y="10" width="2" height="60" fill="black"/>
<rect x="300" y="10" width="2" height="60" fill="black"/>
<rect x="306" y="10" width="2" height="60" fill="black"/>
<rect x="308" y="10" width="2" height="60" fill="black"/>
<rect x="312" y="10" width="2" height="60" fill="black"/>
<rect x="314" y="10" width="2" height="60" fill="black"/>
<rect x="318" y="10" width="2" height="60" fill="black"/>
<rect x="320" y="10" width="2" height="60" fill="black"/>
<rect x="322" y="10" width="2" height="60" fill="black"/>
<rect x="324" y="10" width="2" height="60" fill="black"/>
<rect x="328" y="10" width="2" height="60" fill="black"/>
<rect x="330" y="10" width="2" height="60" fill="black"/>
<rect x="338" y="10" width="2" height="60" fill="black"/>
<rect x="340" y="10" width="2" height="60" fill="black"/>
<rect x="342" y="10" width="2" height="60" fill="black"/>
<rect x="346" y="10" width="2" height="60" fill="black"/>
<rect x="350" y="10" width="2" height="60" fill="black"/>
<rect x="352" y="10" width="2" height="60" fill="black"/>
<text x="187" y="85" text-anchor="middle" font-family="Arial, sans-serif" font-size="14" fill="black">117327080029</text>
</svg>