<?xml version="1.0" encoding="UTF-8"?>
<svg xmlns="http://www.w3.org/2000/svg" width="240" height="240" viewBox="0 0 240 240">
<rect width="100%" height="100%" fill="white"/>
<rect x="20" y="20" width="8" height="8" fill="black"/>
<rect x="28" y="20" width="8" height="8" fill="black"/>
<rect x="36" y="20" width="8" height="8" fill="black"/>
<rect x="44" y="20" width="8" height="8" fill="black"/>
<rect x="52" y="20" width="8" height="8" fill="black"/>
<rect x="60" y="20" width="8" height="8" fill="black"/>
<rect x="68" y="20" width="8" height="8" fill="black"/>
<rect x="164" y="20" width="8" height="8" fill="black"/>
<rect x="172" y="20" width="8" height="8" fill="black"/>
<rect x="180" y="20" width="8" height="8" fill="black"/>
<rect x="188" y="20" width="8" height="8" fill="black"/>
<rect x="196" y="20" width="8" height="8" fill="black"/>
<rect x="204" y="20" width="8" height="8" fill="black"/>
<rect x="212" y="20" width="8" height="8" fill="black"/>
<rect x="20" y="28" width="8" height="8" fill="black"/>
<rect x="68" y="28" width="8" height="8" fill="black"/>
<rect x="164" y="28" width="8" height="8" fill="black"/>
<rect x="212" y="28" width="8" height="8" fill="black"/>
<rect x="20" y="36" width="8" height="8" fill="black"/>
<rect x="36" y="36" width="8" height="8" fill="black"/>
<rect x="44" y="36" width="8" height="8" fill="black"/>
<rect x="52" y="36" width="8" height="8" fill="black"/>
<rect x="68" y="36" width="8" height="8" fill="black"/>
<rect x="164" y="36" width="8" height="8" fill="black"/>
<rect x="180" y="36" width="8" height="8" fill="black"/>
<rect x="188" y="36" width="8" height="8" fill="black"/>
<rect x="196" y="36" width="8" height="8" fill="black"/>
<rect x="212" y="36" width="8" height="8" fill="black"/>
<rect x="20" y="44" width="8" height="8" fill="black"/>
<rect x="36" y="44" width="8" height="8" fill="black"/>
<rect x="44" y="44" width="8" height="8" fill="black"/>
<rect x="52" y="44" width="8" height="8" fill="black"/>
<rect x="68" y="44" width="8" height="8" fill="black"/>
<rect x="164" y="44" width="8" height="8" fill="black"/>
<rect x="180" y="44" width="8" height="8" fill="black"/>
<rect x="188" y="44" width="8" height="8" fill="black"/>
<rect x="196" y="44" width="8" height="8" fill="black"/>
<rect x="212" y="44" width="8" height="8" fill="black"/>
<rect x="20" y="52" width="8" height="8" fill="black"/>
<rect x="36" y="52" width="8" height="8" fill="black"/>
<rect x="44" y="52" width="8" height="8" fill="black"/>
<rect x="52" y="52" width="8" height="8" fill="black"/>
<rect x="68" y="52" width="8" height="8" fill="black"/>
<rect x="164" y="52" width="8" height="8" fill="black"/>
<rect x="180" y="52" width="8" height="8" fill="black"/>
<rect x="188" y="52" width="8" height="8" fill="black"/>
<rect x="196" y="52" width="8" height="8" fill="black"/>
<rect x="212" y="52" width="8" height="8" fill="black"/>
<rect x="20" y="60" width="8" height="8" fill="black"/>
<rect x="68" y="60" width="8" height="8" fill="black"/>
<rect x="164" y="60" width="8" height="8" fill="black"/>
<rect x="212" y="60" width="8" height="8" fill="black"/>
<rect x="20" y="68" width="8" height="8" fill="black"/>
<rect x="28" y="68" width="8" height="8" fill="black"/>
<rect x="36" y="68" width="8" height="8" fill="black"/>
<rect x="44" y="68" width="8" height="8" fill="black"/>
<rect x="52" y="68" width="8" height="8" fill="black"/>
<rect x="60" y="68" width="8" height="8" fill="black"/>
<rect x="68" y="68" width="8" height="8" fill="black"/>
<rect x="84" y="68" width="8" height="8" fill="black"/>
<rect x="100" y="68" width="8" height="8" fill="black"/>
<rect x="116" y="68" width="8" height="8" fill="black"/>
<rect x="132" y="68" width="8" height="8" fill="black"/>
<rect x="148" y="68" width="8" height="8" fill="black"/>
<rect x="164" y="68" width="8" height="8" fill="black"/>
<rect x="172" y="68" width="8" height="8" fill="black"/>
<rect x="180" y="68" width="8" height="8" fill="black"/>
<rect x="188" y="68" width="8" height="8" fill="black"/>
<rect x="196" y="68" width="8" height="8" fill="black"/>
<rect x="204" y="68" width="8" height="8" fill="black"/>
<rect x="212" y="68" width="8" height="8" fill="black"/>
<rect x="68" y="84" width="8" height="8" fill="black"/>
<rect x="188" y="84" width="8" height="8" fill="black"/>
<rect x="196" y="84" width="8" height="8" fill="black"/>
<rect x="204" y="92" width="8" height="8" fill="black"/>
<rect x="212" y="92" width="8" height="8" fill="black"/>
<rect x="68" y="100" width="8" height="8" fill="black"/>
<rect x="172" y="108" width="8" height="8" fill="black"/>
<rect x="196" y="108" width="8" height="8" fill="black"/>
<rect x="204" y="108" width="8" height="8" fill="black"/>
<rect x="212" y="108" width="8" height="8" fill="black"/>
<rect x="68" y="116" width="8" height="8" fill="black"/>
<rect x="188" y="116" width="8" height="8" fill="black"/>
<rect x="196" y="116" width="8" height="8" fill="black"/>
<rect x="172" y="124" width="8" height="8" fill="black"/>
<rect x="180" y="124" width="8" height="8" fill="black"/>
<rect x="204" y="124" width="8" height="8" fill="black"/>
<rect x="212" y="124" width="8" height="8" fill="black"/>
<rect x="68" y="132" width="8" height="8" fill="black"/>
<rect x="204" y="132" width="8" height="8" fill="black"/>
<rect x="172" y="140" width="8" height="8" fill="black"/>
<rect x="180" y="140" width="8" height="8" fill="black"/>
<rect x="204" y="140" width="8" height="8" fill="black"/>
<rect x="212" y="140" width="8" height="8" fill="black"/>
<rect x="68" y="148" width="8" height="8" fill="black"/>
<rect x="188" y="148" width="8" height="8" fill="black"/>
<rect x="196" y="148" width="8" height="8" fill="black"/>
<rect x="172" y="156" width="8" height="8" fill="black"/>
<rect x="180" y="156" width="8" height="8" fill="black"/>
<rect x="204" y="156" width="8" height="8" fill="black"/>
<rect x="20" y="164" width="8" height="8" fill="black"/>
<rect x="28" y="164" width="8" height="8" fill="black"/>
<rect x="36" y="164" width="8" height="8" fill="black"/>
<rect x="44" y="164" width="8" height="8" fill="black"/>
<rect x="52" y="164" width="8" height="8" fill="black"/>
<rect x="60" y="164" width="8" height="8" fill="black"/>
<rect x="68" y="164" width="8" height="8" fill="black"/>
<rect x="188" y="164" width="8" height="8" fill="black"/>
<rect x="196" y="164" width="8" height="8" fill="black"/>
<rect x="20" y="172" width="8" height="8" fill="black"/>
<rect x="68" y="172" width="8" height="8" fill="black"/>
<rect x="188" y="172" width="8" height="8" fill="black"/>
<rect x="204" y="172" width="8" height="8" fill="black"/>
<rect x="212" y="172" width="8" height="8" fill="black"/>
<rect x="20" y="180" width="8" height="8" fill="black"/>
<rect x="36" y="180" width="8" height="8" fill="black"/>
<rect x="44" y="180" width="8" height="8" fill="black"/>
<rect x="52" y="180" width="8" height="8" fill="black"/>
<rect x="68" y="180" width="8" height="8" fill="black"/>
<rect x="188" y="180" width="8" height="8" fill="black"/>
<rect x="196" y="180" width="8" height="8" fill="black"/>
<rect x="20" y="188" width="8" height="8" fill="black"/>
<rect x="36" y="188" width="8" height="8" fill="black"/>
<rect x="44" y="188" width="8" height="8" fill="black"/>
<rect x="52" y="188" width="8" height="8" fill="black"/>
<rect x="68" y="188" width="8" height="8" fill="black"/>
<rect x="172" y="188" width="8" height="8" fill="black"/>
<rect x="180" y="188" width="8" height="8" fill="black"/>
<rect x="204" y="188" width="8" height="8" fill="black"/>
<rect x="20" y="196" width="8" height="8" fill="black"/>
<rect x="36" y="196" width="8" height="8" fill="black"/>
<rect x="44" y="196" width="8" height="8" fill="black"/>
<rect x="52" y="196" width="8" height="8" fill="black"/>
<rect x="68" y="196" width="8" height="8" fill="black"/>
<rect x="196" y="196" width="8" height="8" fill="black"/>
<rect x="20" y="204" width="8" height="8" fill="black"/>
<rect x="68" y="204" width="8" height="8" fill="black"/>
<rect x="204" y="204" width="8" height="8" fill="black"/>
<rect x="212" y="204" width="8" height="8" fill="black"/>
<rect x="20" y="212" width="8" height="8" fill="black"/>
<rect x="28" y="212" width="8" height="8" fill="black"/>
<rect x="36" y="212" width="8" height="8" fill="black"/>
<rect x="44" y="212" width="8" height="8" fill="black"/>
<rect x="52" y="212" width="8" height="8" fill="black"/>
<rect x="60" y="212" width="8" height="8" fill="black"/>
<rect x="68" y="212" width="8" height="8" fill="black"/>
<rect x="188" y="212" width="8" height="8" fill="black"/>
<rect x="196" y="212" width="8" height="8" fill="black"/>
</svg>