<?xml version="1.0" encoding="UTF-8"?><svg xmlns="http://www.w3.org/2000/svg" width="224" height="80"><rect width="100%" height="100%" fill="white"/><rect x="10" y="10" width="2" height="50" fill="black"/><rect x="14" y="10" width="2" height="50" fill="black"/><rect x="20" y="10" width="2" height="50" fill="black"/><rect x="22" y="10" width="2" height="50" fill="black"/><rect x="30" y="10" width="2" height="50" fill="black"/><rect x="36" y="10" width="2" height="50" fill="black"/><rect x="38" y="10" width="2" height="50" fill="black"/><rect x="44" y="10" width="2" height="50" fill="black"/><rect x="52" y="10" width="2" height="50" fill="black"/><rect x="54" y="10" width="2" height="50" fill="black"/><rect x="60" y="10" width="2" height="50" fill="black"/><rect x="62" y="10" width="2" height="50" fill="black"/><rect x="68" y="10" width="2" height="50" fill="black"/><rect x="70" y="10" width="2" height="50" fill="black"/><rect x="78" y="10" width="2" height="50" fill="black"/><rect x="84" y="10" width="2" height="50" fill="black"/><rect x="86" y="10" width="2" height="50" fill="black"/><rect x="92" y="10" width="2" height="50" fill="black"/><rect x="100" y="10" width="2" height="50" fill="black"/><rect x="102" y="10" width="2" height="50" fill="black"/><rect x="108" y="10" width="2" height="50" fill="black"/><rect x="110" y="10" width="2" height="50" fill="black"/><rect x="116" y="10" width="2" height="50" fill="black"/><rect x="118" y="10" width="2" height="50" fill="black"/><rect x="126" y="10" width="2" height="50" fill="black"/><rect x="132" y="10" width="2" height="50" fill="black"/><rect x="134" y="10" width="2" height="50" fill="black"/><rect x="140" y="10" width="2" height="50" fill="black"/><rect x="148" y="10" width="2" height="50" fill="black"/><rect x="150" y="10" width="2" height="50" fill="black"/><rect x="156" y="10" width="2" height="50" fill="black"/><rect x="158" y="10" width="2" height="50" fill="black"/><rect x="164" y="10" width="2" height="50" fill="black"/><rect x="166" y="10" width="2" height="50" fill="black"/><rect x="174" y="10" width="2" height="50" fill="black"/><rect x="180" y="10" width="2" height="50" fill="black"/><rect x="182" y="10" width="2" height="50" fill="black"/><rect x="188" y="10" width="2" height="50" fill="black"/><rect x="196" y="10" width="2" height="50" fill="black"/><rect x="198" y="10" width="2" height="50" fill="black"/><rect x="204" y="10" width="2" height="50" fill="black"/><rect x="206" y="10" width="2" height="50" fill="black"/><rect x="208" y="10" width="2" height="50" fill="black"/><rect x="212" y="10" width="2" height="50" fill="black"/><text x="112" y="75" text-anchor="middle" font-family="monospace" font-size="12">123123123123</text></svg>