<?xml version="1.0" encoding="utf-8"?><!-- Uploaded to: SVG Repo, www.svgrepo.com, Generator: SVG Repo Mixer Tools -->
<svg fill="#000000" width="800px" height="800px" viewBox="0 0 24 24" id="scan-alt" data-name="Flat Color" xmlns="http://www.w3.org/2000/svg" class="icon flat-color"><path id="secondary" d="M12,17a1,1,0,0,1-1-1V8a1,1,0,0,1,2,0v8A1,1,0,0,1,12,17Zm4-2a1,1,0,0,1-1-1V10a1,1,0,0,1,2,0v4A1,1,0,0,1,16,15ZM8,15a1,1,0,0,1-1-1V10a1,1,0,0,1,2,0v4A1,1,0,0,1,8,15Z" style="fill: rgb(44, 169, 188);"></path><path id="primary" d="M20,22H16a1,1,0,0,1,0-2h4V16a1,1,0,0,1,2,0v4A2,2,0,0,1,20,22ZM9,21a1,1,0,0,0-1-1H4V16a1,1,0,0,0-2,0v4a2,2,0,0,0,2,2H8A1,1,0,0,0,9,21ZM4,8V4H8A1,1,0,0,0,8,2H4A2,2,0,0,0,2,4V8A1,1,0,0,0,4,8ZM22,8V4a2,2,0,0,0-2-2H16a1,1,0,0,0,0,2h4V8a1,1,0,0,0,2,0Z" style="fill: rgb(0, 0, 0);"></path></svg>